<svg xmlns="http://www.w3.org/2000/svg" width="64" height="40" viewBox="0 0 64 40">
    <g fill="none" fill-rule="evenodd">
        <path d="M20.556 32c-.556 0-1.042.09-1.487.28-.43.18-.805.45-1.11.81a3.748 3.748 0 0 0-.709 1.28c-.167.506-.25 1.08-.25 1.72 0 1.28.82 1.91 2.444 1.91.556 0 1.042-.09 1.487-.28.43-.18.805-.45 1.11-.81.306-.348.542-.786.709-1.28.167-.506.25-1.08.25-1.72-.014-1.27-.82-1.91-2.444-1.91zM45.556 32c-.556 0-1.042.09-1.487.28-.444.18-.805.45-1.11.81a3.748 3.748 0 0 0-.709 1.28c-.167.506-.25 1.08-.25 1.72 0 1.28.82 1.91 2.444 1.91.556 0 1.042-.09 1.487-.28.43-.18.805-.45 1.11-.81.306-.348.542-.786.709-1.28.167-.506.25-1.08.25-1.72 0-1.27-.82-1.91-2.444-1.91z"/>
        <path fill="#485563" fill-rule="nonzero" d="M28 18h9.491c3.392 0 6.39-2.307 7.42-5.693L45 12H29.804L28 18z"/>
        <path fill="#FC3" fill-rule="nonzero" d="M43 19H27.817L26 25h9.491c3.392 0 6.39-2.302 7.42-5.68L43 19z"/>
        <path fill="#485563" fill-rule="nonzero" d="M23.916 20.789l3.49-10.84H39.6A7.537 7.537 0 0 0 46.78 4.7L47 4.012s-.012 0-.012-.012h-6.27v.012h.48H28.55a7.527 7.527 0 0 0-7.166 5.211l-.234.726L16 26h.762a7.523 7.523 0 0 0 7.154-5.211z"/>
        <path fill="#FC3" fill-rule="nonzero" d="M37 0s2.717 1.445 3.976 3H47C43.05.735 37 0 37 0z"/>
        <path fill="#485563" fill-rule="nonzero" d="M7.767 31.364L8 30H1.041l-.281.78.44.182c.086.037.135.073.148.098a.493.493 0 0 1 0 .194L0 39h6.518l.245-1.364h-4.73l.454-2.558h3.639l.245-1.315H2.72l.429-2.399h4.618zM13.243 31.516c.43 0 .85.053 1.255.17.407.118.739.222.997.327L16 30.536a7.476 7.476 0 0 0-1.243-.392A7.924 7.924 0 0 0 13.194 30c-.8 0-1.526.144-2.166.418a4.287 4.287 0 0 0-1.625 1.23c-.443.535-.788 1.215-1.034 2.025-.246.81-.369 1.739-.369 2.81 0 1.164.332 2.04.985 2.628.652.588 1.624.889 2.917.889.443 0 .886-.026 1.316-.078.444-.053.862-.131 1.268-.236l.259-1.542c-.419.104-.825.183-1.219.248a9.447 9.447 0 0 1-1.243.092c-1.625 0-2.437-.785-2.437-2.34 0-1.49.296-2.64.899-3.438.578-.784 1.427-1.19 2.498-1.19zM24.014 30.889C23.36 30.3 22.386 30 21.092 30c-.802 0-1.517.144-2.145.444a4.413 4.413 0 0 0-1.603 1.268c-.444.55-.777 1.23-.999 2.04-.234.81-.345 1.712-.345 2.732 0 1.163.333 2.039.986 2.627.654.588 1.628.889 2.922.889.79 0 1.504-.144 2.145-.444a4.313 4.313 0 0 0 1.603-1.268c.444-.55.777-1.23.999-2.027.234-.797.345-1.712.345-2.732 0-1.163-.333-2.039-.986-2.64zm-1.073 4.836c-.148.589-.357 1.085-.629 1.49a3.002 3.002 0 0 1-.986.942 2.72 2.72 0 0 1-1.32.327c-1.442 0-2.169-.745-2.169-2.223 0-.745.074-1.411.222-2 .148-.588.357-1.085.629-1.49.27-.405.604-.719.986-.94a2.72 2.72 0 0 1 1.32-.328c1.442 0 2.169.745 2.169 2.222-.012.759-.086 1.425-.222 2z"/>
        <path fill="#FC3" fill-rule="nonzero" d="M33.755 31.364L34 30h-6.946l-.282.78.44.182c.087.037.136.073.148.098a.493.493 0 0 1 0 .194L26 39h1.789l.624-3.532h3.651l.245-1.34h-3.663l.503-2.752h4.606v-.012zM37.268 30.17c.012-.085.012-.121-.023-.146a.421.421 0 0 0-.132-.024h-2.087l-.275.778.43.183c.083.036.131.073.143.097a.505.505 0 0 1 0 .195L34 39h5.75l.25-1.362h-4.02l1.288-7.468zM49.014 30.889C48.36 30.3 47.386 30 46.092 30c-.802 0-1.517.144-2.145.444a4.413 4.413 0 0 0-1.603 1.268c-.444.55-.777 1.23-.999 2.04-.234.81-.345 1.712-.345 2.732 0 1.163.333 2.039.986 2.627.654.588 1.628.889 2.922.889.79 0 1.504-.144 2.145-.444a4.313 4.313 0 0 0 1.603-1.268c.444-.55.777-1.23.999-2.027.234-.797.345-1.712.345-2.732-.012-1.163-.333-2.039-.986-2.64zm-1.085 4.836c-.148.589-.358 1.085-.629 1.49a3.002 3.002 0 0 1-.986.942 2.72 2.72 0 0 1-1.32.327c-1.442 0-2.17-.745-2.17-2.223 0-.745.075-1.411.223-2 .148-.588.357-1.085.628-1.49.272-.405.604-.719.987-.94a2.72 2.72 0 0 1 1.319-.328c1.442 0 2.17.745 2.17 2.222 0 .759-.074 1.425-.222 2zM62.142 30.012a108.543 108.543 0 0 1-1.78 3.964 57.03 57.03 0 0 1-1.743 3.378h-.013a49.198 49.198 0 0 1-.49-3.634 72.064 72.064 0 0 1-.27-3.525h-1.807a137.501 137.501 0 0 1-1.652 3.634 75.919 75.919 0 0 1-1.78 3.512h-.013a46.55 46.55 0 0 1-.504-3.682A87.166 87.166 0 0 1 51.82 30H50c.026.634.077 1.354.155 2.146.077.793.155 1.598.27 2.415.104.817.233 1.61.362 2.39.13.78.271 1.464.413 2.049h2.142a61.723 61.723 0 0 0 1.703-3.11 30.123 30.123 0 0 0 1.394-3.17c.129 2.17.426 4.268.89 6.28h2.103c.362-.585.749-1.268 1.174-2.049.426-.78.852-1.573 1.265-2.39.413-.817.813-1.622 1.187-2.415.374-.792.684-1.512.942-2.146h-1.858v.012z"/>
    </g>
</svg>
